<svg xmlns="http://www.w3.org/2000/svg" xmlns:xlink="http://www.w3.org/1999/xlink" width="500" zoomAndPan="magnify" viewBox="0 0 375 374.999991" height="500" preserveAspectRatio="xMidYMid meet" version="1.0"><defs><g/><clipPath id="8c4347ed12"><path d="M 0 175.144531 L 375 175.144531 L 375 199.855469 L 0 199.855469 Z M 0 175.144531 " clip-rule="nonzero"/></clipPath><clipPath id="87d0a11190"><path d="M 84.609375 70.589844 L 252 70.589844 L 252 196 L 84.609375 196 Z M 84.609375 70.589844 " clip-rule="nonzero"/></clipPath><clipPath id="b6cfdbcb46"><path d="M 244.566406 98.417969 L 154.21875 98.417969 C 150.382812 98.417969 147.269531 101.53125 147.269531 105.375 C 147.269531 109.214844 150.382812 112.328125 154.21875 112.328125 L 233.320312 112.328125 L 212.472656 154.058594 L 145.753906 154.058594 L 126.214844 75.863281 C 125.4375 72.769531 122.660156 70.597656 119.472656 70.597656 L 91.671875 70.597656 C 87.835938 70.597656 84.722656 73.710938 84.722656 77.554688 C 84.722656 81.394531 87.835938 84.507812 91.671875 84.507812 L 114.042969 84.507812 L 133.15625 161.015625 L 126.628906 187.144531 C 125.699219 190.871094 127.960938 194.648438 131.683594 195.582031 C 132.234375 195.71875 132.800781 195.789062 133.371094 195.789062 L 230.664062 195.789062 C 234.503906 195.789062 237.613281 192.675781 237.613281 188.835938 C 237.613281 184.992188 234.503906 181.878906 230.664062 181.878906 L 142.273438 181.878906 L 145.75 167.96875 L 216.765625 167.96875 C 219.398438 167.96875 221.808594 166.480469 222.984375 164.125 L 250.785156 108.484375 C 252.5 105.046875 251.109375 100.871094 247.675781 99.152344 C 246.707031 98.667969 245.644531 98.417969 244.566406 98.417969 Z M 244.566406 98.417969 " clip-rule="nonzero"/></clipPath><linearGradient x1="-0.00733157" gradientTransform="matrix(0.325763, 0, 0, 0.326017, 84.726275, 63.643828)" y1="213.33299" x2="515.019266" gradientUnits="userSpaceOnUse" y2="213.33299" id="69b65169ff"><stop stop-opacity="1" stop-color="rgb(94.749451%, 65.994263%, 8.911133%)" offset="0"/><stop stop-opacity="1" stop-color="rgb(94.737244%, 65.837097%, 8.961487%)" offset="0.0078125"/><stop stop-opacity="1" stop-color="rgb(94.711304%, 65.522766%, 9.062195%)" offset="0.015625"/><stop stop-opacity="1" stop-color="rgb(94.68689%, 65.208435%, 9.162903%)" offset="0.0234375"/><stop stop-opacity="1" stop-color="rgb(94.662476%, 64.89563%, 9.263611%)" offset="0.03125"/><stop stop-opacity="1" stop-color="rgb(94.636536%, 64.581299%, 9.364319%)" offset="0.0390625"/><stop stop-opacity="1" stop-color="rgb(94.612122%, 64.266968%, 9.465027%)" offset="0.046875"/><stop stop-opacity="1" stop-color="rgb(94.587708%, 63.952637%, 9.565735%)" offset="0.0546875"/><stop stop-opacity="1" stop-color="rgb(94.561768%, 63.639832%, 9.666443%)" offset="0.0625"/><stop stop-opacity="1" stop-color="rgb(94.537354%, 63.3255%, 9.767151%)" offset="0.0703125"/><stop stop-opacity="1" stop-color="rgb(94.511414%, 63.011169%, 9.867859%)" offset="0.078125"/><stop stop-opacity="1" stop-color="rgb(94.487%, 62.698364%, 9.967041%)" offset="0.0859375"/><stop stop-opacity="1" stop-color="rgb(94.462585%, 62.384033%, 10.067749%)" offset="0.09375"/><stop stop-opacity="1" stop-color="rgb(94.436646%, 62.069702%, 10.168457%)" offset="0.101562"/><stop stop-opacity="1" stop-color="rgb(94.412231%, 61.756897%, 10.269165%)" offset="0.109375"/><stop stop-opacity="1" stop-color="rgb(94.387817%, 61.442566%, 10.369873%)" offset="0.117188"/><stop stop-opacity="1" stop-color="rgb(94.361877%, 61.128235%, 10.470581%)" offset="0.125"/><stop stop-opacity="1" stop-color="rgb(94.337463%, 60.813904%, 10.571289%)" offset="0.132812"/><stop stop-opacity="1" stop-color="rgb(94.311523%, 60.501099%, 10.671997%)" offset="0.140625"/><stop stop-opacity="1" stop-color="rgb(94.287109%, 60.186768%, 10.772705%)" offset="0.148438"/><stop stop-opacity="1" stop-color="rgb(94.262695%, 59.872437%, 10.873413%)" offset="0.15625"/><stop stop-opacity="1" stop-color="rgb(94.236755%, 59.559631%, 10.974121%)" offset="0.164062"/><stop stop-opacity="1" stop-color="rgb(94.212341%, 59.2453%, 11.073303%)" offset="0.171875"/><stop stop-opacity="1" stop-color="rgb(94.187927%, 58.930969%, 11.174011%)" offset="0.179687"/><stop stop-opacity="1" stop-color="rgb(94.161987%, 58.618164%, 11.274719%)" offset="0.1875"/><stop stop-opacity="1" stop-color="rgb(94.137573%, 58.303833%, 11.375427%)" offset="0.195312"/><stop stop-opacity="1" stop-color="rgb(94.111633%, 57.989502%, 11.476135%)" offset="0.203125"/><stop stop-opacity="1" stop-color="rgb(94.087219%, 57.675171%, 11.576843%)" offset="0.210937"/><stop stop-opacity="1" stop-color="rgb(94.062805%, 57.362366%, 11.677551%)" offset="0.21875"/><stop stop-opacity="1" stop-color="rgb(94.036865%, 57.048035%, 11.778259%)" offset="0.226562"/><stop stop-opacity="1" stop-color="rgb(94.012451%, 56.733704%, 11.878967%)" offset="0.234375"/><stop stop-opacity="1" stop-color="rgb(93.988037%, 56.420898%, 11.979675%)" offset="0.242187"/><stop stop-opacity="1" stop-color="rgb(93.962097%, 56.106567%, 12.078857%)" offset="0.25"/><stop stop-opacity="1" stop-color="rgb(93.937683%, 55.792236%, 12.179565%)" offset="0.257812"/><stop stop-opacity="1" stop-color="rgb(93.911743%, 55.479431%, 12.280273%)" offset="0.265625"/><stop stop-opacity="1" stop-color="rgb(93.887329%, 55.1651%, 12.380981%)" offset="0.273438"/><stop stop-opacity="1" stop-color="rgb(93.862915%, 54.850769%, 12.481689%)" offset="0.28125"/><stop stop-opacity="1" stop-color="rgb(93.836975%, 54.537964%, 12.582397%)" offset="0.289062"/><stop stop-opacity="1" stop-color="rgb(93.812561%, 54.223633%, 12.683105%)" offset="0.296875"/><stop stop-opacity="1" stop-color="rgb(93.788147%, 53.909302%, 12.783813%)" offset="0.304688"/><stop stop-opacity="1" stop-color="rgb(93.762207%, 53.594971%, 12.884521%)" offset="0.3125"/><stop stop-opacity="1" stop-color="rgb(93.737793%, 53.282166%, 12.985229%)" offset="0.320312"/><stop stop-opacity="1" stop-color="rgb(93.711853%, 52.967834%, 13.085938%)" offset="0.328125"/><stop stop-opacity="1" stop-color="rgb(93.687439%, 52.653503%, 13.18512%)" offset="0.335938"/><stop stop-opacity="1" stop-color="rgb(93.663025%, 52.340698%, 13.285828%)" offset="0.34375"/><stop stop-opacity="1" stop-color="rgb(93.637085%, 52.026367%, 13.386536%)" offset="0.351562"/><stop stop-opacity="1" stop-color="rgb(93.612671%, 51.712036%, 13.487244%)" offset="0.359375"/><stop stop-opacity="1" stop-color="rgb(93.588257%, 51.399231%, 13.587952%)" offset="0.367187"/><stop stop-opacity="1" stop-color="rgb(93.562317%, 51.0849%, 13.68866%)" offset="0.375"/><stop stop-opacity="1" stop-color="rgb(93.537903%, 50.770569%, 13.789368%)" offset="0.382812"/><stop stop-opacity="1" stop-color="rgb(93.513489%, 50.456238%, 13.890076%)" offset="0.390625"/><stop stop-opacity="1" stop-color="rgb(93.487549%, 50.143433%, 13.990784%)" offset="0.398437"/><stop stop-opacity="1" stop-color="rgb(93.463135%, 49.829102%, 14.091492%)" offset="0.40625"/><stop stop-opacity="1" stop-color="rgb(93.437195%, 49.514771%, 14.1922%)" offset="0.414062"/><stop stop-opacity="1" stop-color="rgb(93.412781%, 49.201965%, 14.291382%)" offset="0.421875"/><stop stop-opacity="1" stop-color="rgb(93.388367%, 48.887634%, 14.39209%)" offset="0.429687"/><stop stop-opacity="1" stop-color="rgb(93.362427%, 48.573303%, 14.492798%)" offset="0.4375"/><stop stop-opacity="1" stop-color="rgb(93.338013%, 48.260498%, 14.593506%)" offset="0.445313"/><stop stop-opacity="1" stop-color="rgb(93.313599%, 47.946167%, 14.694214%)" offset="0.453125"/><stop stop-opacity="1" stop-color="rgb(93.287659%, 47.631836%, 14.794922%)" offset="0.460937"/><stop stop-opacity="1" stop-color="rgb(93.263245%, 47.317505%, 14.89563%)" offset="0.46875"/><stop stop-opacity="1" stop-color="rgb(93.237305%, 47.0047%, 14.996338%)" offset="0.476563"/><stop stop-opacity="1" stop-color="rgb(93.212891%, 46.690369%, 15.097046%)" offset="0.484375"/><stop stop-opacity="1" stop-color="rgb(93.188477%, 46.376038%, 15.197754%)" offset="0.492187"/><stop stop-opacity="1" stop-color="rgb(93.162537%, 46.063232%, 15.298462%)" offset="0.5"/><stop stop-opacity="1" stop-color="rgb(93.138123%, 45.748901%, 15.397644%)" offset="0.507813"/><stop stop-opacity="1" stop-color="rgb(93.113708%, 45.43457%, 15.498352%)" offset="0.515625"/><stop stop-opacity="1" stop-color="rgb(93.087769%, 45.121765%, 15.59906%)" offset="0.523437"/><stop stop-opacity="1" stop-color="rgb(93.063354%, 44.807434%, 15.699768%)" offset="0.53125"/><stop stop-opacity="1" stop-color="rgb(93.037415%, 44.493103%, 15.800476%)" offset="0.539063"/><stop stop-opacity="1" stop-color="rgb(93.013%, 44.178772%, 15.901184%)" offset="0.546875"/><stop stop-opacity="1" stop-color="rgb(92.988586%, 43.865967%, 16.001892%)" offset="0.554687"/><stop stop-opacity="1" stop-color="rgb(92.962646%, 43.551636%, 16.1026%)" offset="0.5625"/><stop stop-opacity="1" stop-color="rgb(92.938232%, 43.237305%, 16.203308%)" offset="0.570312"/><stop stop-opacity="1" stop-color="rgb(92.913818%, 42.9245%, 16.304016%)" offset="0.578125"/><stop stop-opacity="1" stop-color="rgb(92.887878%, 42.610168%, 16.404724%)" offset="0.585937"/><stop stop-opacity="1" stop-color="rgb(92.863464%, 42.295837%, 16.503906%)" offset="0.59375"/><stop stop-opacity="1" stop-color="rgb(92.837524%, 41.983032%, 16.604614%)" offset="0.601562"/><stop stop-opacity="1" stop-color="rgb(92.81311%, 41.668701%, 16.705322%)" offset="0.609375"/><stop stop-opacity="1" stop-color="rgb(92.788696%, 41.35437%, 16.80603%)" offset="0.617187"/><stop stop-opacity="1" stop-color="rgb(92.762756%, 41.040039%, 16.906738%)" offset="0.625"/><stop stop-opacity="1" stop-color="rgb(92.738342%, 40.727234%, 17.007446%)" offset="0.632812"/><stop stop-opacity="1" stop-color="rgb(92.713928%, 40.412903%, 17.108154%)" offset="0.640625"/><stop stop-opacity="1" stop-color="rgb(92.687988%, 40.098572%, 17.208862%)" offset="0.648437"/><stop stop-opacity="1" stop-color="rgb(92.663574%, 39.785767%, 17.30957%)" offset="0.65625"/><stop stop-opacity="1" stop-color="rgb(92.637634%, 39.471436%, 17.410278%)" offset="0.664062"/><stop stop-opacity="1" stop-color="rgb(92.61322%, 39.157104%, 17.50946%)" offset="0.671875"/><stop stop-opacity="1" stop-color="rgb(92.588806%, 38.844299%, 17.610168%)" offset="0.679687"/><stop stop-opacity="1" stop-color="rgb(92.562866%, 38.529968%, 17.710876%)" offset="0.6875"/><stop stop-opacity="1" stop-color="rgb(92.538452%, 38.215637%, 17.811584%)" offset="0.695312"/><stop stop-opacity="1" stop-color="rgb(92.514038%, 37.901306%, 17.912292%)" offset="0.703125"/><stop stop-opacity="1" stop-color="rgb(92.488098%, 37.588501%, 18.013%)" offset="0.710937"/><stop stop-opacity="1" stop-color="rgb(92.463684%, 37.27417%, 18.113708%)" offset="0.71875"/><stop stop-opacity="1" stop-color="rgb(92.43927%, 36.959839%, 18.214417%)" offset="0.726562"/><stop stop-opacity="1" stop-color="rgb(92.41333%, 36.647034%, 18.315125%)" offset="0.734375"/><stop stop-opacity="1" stop-color="rgb(92.388916%, 36.332703%, 18.415833%)" offset="0.742187"/><stop stop-opacity="1" stop-color="rgb(92.362976%, 36.018372%, 18.516541%)" offset="0.75"/><stop stop-opacity="1" stop-color="rgb(92.338562%, 35.705566%, 18.615723%)" offset="0.757812"/><stop stop-opacity="1" stop-color="rgb(92.314148%, 35.391235%, 18.716431%)" offset="0.765625"/><stop stop-opacity="1" stop-color="rgb(92.288208%, 35.076904%, 18.817139%)" offset="0.773437"/><stop stop-opacity="1" stop-color="rgb(92.263794%, 34.764099%, 18.917847%)" offset="0.78125"/><stop stop-opacity="1" stop-color="rgb(92.23938%, 34.449768%, 19.018555%)" offset="0.789062"/><stop stop-opacity="1" stop-color="rgb(92.21344%, 34.135437%, 19.119263%)" offset="0.796875"/><stop stop-opacity="1" stop-color="rgb(92.189026%, 33.821106%, 19.219971%)" offset="0.804687"/><stop stop-opacity="1" stop-color="rgb(92.163086%, 33.508301%, 19.320679%)" offset="0.8125"/><stop stop-opacity="1" stop-color="rgb(92.138672%, 33.19397%, 19.421387%)" offset="0.820312"/><stop stop-opacity="1" stop-color="rgb(92.114258%, 32.879639%, 19.522095%)" offset="0.828125"/><stop stop-opacity="1" stop-color="rgb(92.088318%, 32.566833%, 19.622803%)" offset="0.835937"/><stop stop-opacity="1" stop-color="rgb(92.063904%, 32.252502%, 19.721985%)" offset="0.84375"/><stop stop-opacity="1" stop-color="rgb(92.03949%, 31.938171%, 19.822693%)" offset="0.851562"/><stop stop-opacity="1" stop-color="rgb(92.01355%, 31.625366%, 19.923401%)" offset="0.859375"/><stop stop-opacity="1" stop-color="rgb(91.989136%, 31.311035%, 20.024109%)" offset="0.867187"/><stop stop-opacity="1" stop-color="rgb(91.963196%, 30.996704%, 20.124817%)" offset="0.875"/><stop stop-opacity="1" stop-color="rgb(91.938782%, 30.682373%, 20.225525%)" offset="0.882812"/><stop stop-opacity="1" stop-color="rgb(91.914368%, 30.369568%, 20.326233%)" offset="0.890625"/><stop stop-opacity="1" stop-color="rgb(91.888428%, 30.055237%, 20.426941%)" offset="0.898437"/><stop stop-opacity="1" stop-color="rgb(91.864014%, 29.740906%, 20.527649%)" offset="0.90625"/><stop stop-opacity="1" stop-color="rgb(91.8396%, 29.428101%, 20.628357%)" offset="0.914062"/><stop stop-opacity="1" stop-color="rgb(91.81366%, 29.11377%, 20.729065%)" offset="0.921875"/><stop stop-opacity="1" stop-color="rgb(91.789246%, 28.799438%, 20.828247%)" offset="0.929687"/><stop stop-opacity="1" stop-color="rgb(91.763306%, 28.486633%, 20.928955%)" offset="0.9375"/><stop stop-opacity="1" stop-color="rgb(91.738892%, 28.172302%, 21.029663%)" offset="0.945312"/><stop stop-opacity="1" stop-color="rgb(91.714478%, 27.857971%, 21.130371%)" offset="0.953125"/><stop stop-opacity="1" stop-color="rgb(91.688538%, 27.54364%, 21.231079%)" offset="0.960937"/><stop stop-opacity="1" stop-color="rgb(91.664124%, 27.230835%, 21.331787%)" offset="0.96875"/><stop stop-opacity="1" stop-color="rgb(91.639709%, 26.916504%, 21.432495%)" offset="0.976562"/><stop stop-opacity="1" stop-color="rgb(91.61377%, 26.602173%, 21.533203%)" offset="0.984375"/><stop stop-opacity="1" stop-color="rgb(91.589355%, 26.289368%, 21.633911%)" offset="0.992188"/><stop stop-opacity="1" stop-color="rgb(91.564941%, 25.975037%, 21.734619%)" offset="1"/></linearGradient><clipPath id="4fc5d42a96"><path d="M 209 209 L 224 209 L 224 223.589844 L 209 223.589844 Z M 209 209 " clip-rule="nonzero"/></clipPath><clipPath id="495b8e2694"><path d="M 223.714844 216.65625 C 223.714844 217.109375 223.671875 217.5625 223.582031 218.011719 C 223.492188 218.460938 223.363281 218.894531 223.1875 219.316406 C 223.011719 219.738281 222.796875 220.140625 222.542969 220.519531 C 222.292969 220.898438 222.003906 221.25 221.679688 221.574219 C 221.359375 221.894531 221.007812 222.183594 220.628906 222.4375 C 220.246094 222.691406 219.847656 222.90625 219.425781 223.082031 C 219.003906 223.253906 218.570312 223.386719 218.121094 223.476562 C 217.675781 223.566406 217.222656 223.609375 216.765625 223.609375 C 216.308594 223.609375 215.859375 223.566406 215.410156 223.476562 C 214.964844 223.386719 214.527344 223.253906 214.105469 223.082031 C 213.683594 222.90625 213.285156 222.691406 212.90625 222.4375 C 212.527344 222.183594 212.175781 221.894531 211.851562 221.574219 C 211.53125 221.25 211.242188 220.898438 210.988281 220.519531 C 210.734375 220.140625 210.519531 219.738281 210.347656 219.316406 C 210.171875 218.894531 210.039062 218.460938 209.949219 218.011719 C 209.859375 217.5625 209.816406 217.109375 209.816406 216.65625 C 209.816406 216.199219 209.859375 215.746094 209.949219 215.296875 C 210.039062 214.851562 210.171875 214.414062 210.347656 213.992188 C 210.519531 213.570312 210.734375 213.171875 210.988281 212.789062 C 211.242188 212.410156 211.53125 212.058594 211.851562 211.738281 C 212.175781 211.414062 212.527344 211.125 212.90625 210.871094 C 213.285156 210.617188 213.683594 210.402344 214.105469 210.230469 C 214.527344 210.054688 214.964844 209.921875 215.410156 209.832031 C 215.859375 209.746094 216.308594 209.699219 216.765625 209.699219 C 217.222656 209.699219 217.675781 209.746094 218.121094 209.832031 C 218.570312 209.921875 219.003906 210.054688 219.425781 210.230469 C 219.847656 210.402344 220.246094 210.617188 220.628906 210.871094 C 221.007812 211.125 221.359375 211.414062 221.679688 211.738281 C 222.003906 212.058594 222.292969 212.410156 222.542969 212.789062 C 222.796875 213.171875 223.011719 213.570312 223.1875 213.992188 C 223.363281 214.414062 223.492188 214.851562 223.582031 215.296875 C 223.671875 215.746094 223.714844 216.199219 223.714844 216.65625 Z M 223.714844 216.65625 " clip-rule="nonzero"/></clipPath><linearGradient x1="383.992962" gradientTransform="matrix(0.325763, 0, 0, 0.326017, 84.726275, 63.643828)" y1="469.33301" x2="426.65898" gradientUnits="userSpaceOnUse" y2="469.33301" id="d70e67d498"><stop stop-opacity="1" stop-color="rgb(92.366028%, 36.039734%, 18.508911%)" offset="0"/><stop stop-opacity="1" stop-color="rgb(92.356873%, 35.934448%, 18.54248%)" offset="0.0625"/><stop stop-opacity="1" stop-color="rgb(92.340088%, 35.726929%, 18.609619%)" offset="0.125"/><stop stop-opacity="1" stop-color="rgb(92.323303%, 35.519409%, 18.675232%)" offset="0.1875"/><stop stop-opacity="1" stop-color="rgb(92.306519%, 35.310364%, 18.742371%)" offset="0.25"/><stop stop-opacity="1" stop-color="rgb(92.289734%, 35.102844%, 18.809509%)" offset="0.3125"/><stop stop-opacity="1" stop-color="rgb(92.274475%, 34.895325%, 18.875122%)" offset="0.375"/><stop stop-opacity="1" stop-color="rgb(92.25769%, 34.686279%, 18.942261%)" offset="0.4375"/><stop stop-opacity="1" stop-color="rgb(92.240906%, 34.47876%, 19.009399%)" offset="0.5"/><stop stop-opacity="1" stop-color="rgb(92.224121%, 34.27124%, 19.076538%)" offset="0.5625"/><stop stop-opacity="1" stop-color="rgb(92.207336%, 34.062195%, 19.142151%)" offset="0.625"/><stop stop-opacity="1" stop-color="rgb(92.190552%, 33.854675%, 19.20929%)" offset="0.6875"/><stop stop-opacity="1" stop-color="rgb(92.173767%, 33.647156%, 19.276428%)" offset="0.75"/><stop stop-opacity="1" stop-color="rgb(92.158508%, 33.43811%, 19.342041%)" offset="0.8125"/><stop stop-opacity="1" stop-color="rgb(92.141724%, 33.230591%, 19.40918%)" offset="0.875"/><stop stop-opacity="1" stop-color="rgb(92.124939%, 33.023071%, 19.476318%)" offset="0.9375"/><stop stop-opacity="1" stop-color="rgb(92.108154%, 32.814026%, 19.541931%)" offset="1"/></linearGradient><clipPath id="0f83b7abdf"><path d="M 140 209 L 155 209 L 155 223.589844 L 140 223.589844 Z M 140 209 " clip-rule="nonzero"/></clipPath><clipPath id="8367f8ec5f"><path d="M 154.21875 216.65625 C 154.21875 217.109375 154.175781 217.5625 154.085938 218.011719 C 153.996094 218.460938 153.867188 218.894531 153.691406 219.316406 C 153.515625 219.738281 153.300781 220.140625 153.046875 220.519531 C 152.796875 220.898438 152.507812 221.25 152.183594 221.574219 C 151.863281 221.894531 151.511719 222.183594 151.132812 222.4375 C 150.75 222.691406 150.351562 222.90625 149.929688 223.082031 C 149.507812 223.253906 149.074219 223.386719 148.625 223.476562 C 148.179688 223.566406 147.726562 223.609375 147.269531 223.609375 C 146.8125 223.609375 146.363281 223.566406 145.914062 223.476562 C 145.46875 223.386719 145.03125 223.253906 144.609375 223.082031 C 144.1875 222.90625 143.789062 222.691406 143.410156 222.4375 C 143.03125 222.183594 142.679688 221.894531 142.355469 221.574219 C 142.035156 221.25 141.746094 220.898438 141.492188 220.519531 C 141.238281 220.140625 141.023438 219.738281 140.851562 219.316406 C 140.675781 218.894531 140.542969 218.460938 140.453125 218.011719 C 140.367188 217.5625 140.320312 217.109375 140.320312 216.65625 C 140.320312 216.199219 140.367188 215.746094 140.453125 215.296875 C 140.542969 214.851562 140.675781 214.414062 140.851562 213.992188 C 141.023438 213.570312 141.238281 213.171875 141.492188 212.789062 C 141.746094 212.410156 142.035156 212.058594 142.355469 211.738281 C 142.679688 211.414062 143.03125 211.125 143.410156 210.871094 C 143.789062 210.617188 144.1875 210.402344 144.609375 210.230469 C 145.03125 210.054688 145.46875 209.921875 145.914062 209.832031 C 146.363281 209.746094 146.8125 209.699219 147.269531 209.699219 C 147.726562 209.699219 148.179688 209.746094 148.625 209.832031 C 149.074219 209.921875 149.507812 210.054688 149.929688 210.230469 C 150.351562 210.402344 150.75 210.617188 151.132812 210.871094 C 151.511719 211.125 151.863281 211.414062 152.183594 211.738281 C 152.507812 212.058594 152.796875 212.410156 153.046875 212.789062 C 153.300781 213.171875 153.515625 213.570312 153.691406 213.992188 C 153.867188 214.414062 153.996094 214.851562 154.085938 215.296875 C 154.175781 215.746094 154.21875 216.199219 154.21875 216.65625 Z M 154.21875 216.65625 " clip-rule="nonzero"/></clipPath><linearGradient x1="170.659991" gradientTransform="matrix(0.325763, 0, 0, 0.326017, 84.726275, 63.643828)" y1="469.33301" x2="213.325989" gradientUnits="userSpaceOnUse" y2="469.33301" id="f19ecdac7e"><stop stop-opacity="1" stop-color="rgb(93.690491%, 52.680969%, 13.17749%)" offset="0"/><stop stop-opacity="1" stop-color="rgb(93.681335%, 52.575684%, 13.21106%)" offset="0.0625"/><stop stop-opacity="1" stop-color="rgb(93.664551%, 52.368164%, 13.276672%)" offset="0.125"/><stop stop-opacity="1" stop-color="rgb(93.647766%, 52.160645%, 13.343811%)" offset="0.1875"/><stop stop-opacity="1" stop-color="rgb(93.630981%, 51.951599%, 13.41095%)" offset="0.25"/><stop stop-opacity="1" stop-color="rgb(93.614197%, 51.74408%, 13.476562%)" offset="0.3125"/><stop stop-opacity="1" stop-color="rgb(93.598938%, 51.53656%, 13.543701%)" offset="0.375"/><stop stop-opacity="1" stop-color="rgb(93.582153%, 51.327515%, 13.61084%)" offset="0.4375"/><stop stop-opacity="1" stop-color="rgb(93.565369%, 51.119995%, 13.676453%)" offset="0.5"/><stop stop-opacity="1" stop-color="rgb(93.548584%, 50.912476%, 13.743591%)" offset="0.5625"/><stop stop-opacity="1" stop-color="rgb(93.531799%, 50.70343%, 13.81073%)" offset="0.625"/><stop stop-opacity="1" stop-color="rgb(93.515015%, 50.495911%, 13.876343%)" offset="0.6875"/><stop stop-opacity="1" stop-color="rgb(93.49823%, 50.288391%, 13.943481%)" offset="0.75"/><stop stop-opacity="1" stop-color="rgb(93.482971%, 50.080872%, 14.01062%)" offset="0.8125"/><stop stop-opacity="1" stop-color="rgb(93.466187%, 49.871826%, 14.076233%)" offset="0.875"/><stop stop-opacity="1" stop-color="rgb(93.449402%, 49.664307%, 14.143372%)" offset="0.9375"/><stop stop-opacity="1" stop-color="rgb(93.432617%, 49.456787%, 14.21051%)" offset="1"/></linearGradient></defs><rect x="-37.5" width="450" fill="#ffffff" y="-37.499999" height="449.999989" fill-opacity="1"/><rect x="-37.5" width="450" fill="#ffffff" y="-37.499999" height="449.999989" fill-opacity="1"/><g clip-path="url(#8c4347ed12)"><path fill="#ffffff" d="M 0 175.144531 L 375.011719 175.144531 L 375.011719 199.855469 L 0 199.855469 Z M 0 175.144531 " fill-opacity="1" fill-rule="nonzero"/></g><g clip-path="url(#87d0a11190)"><g clip-path="url(#b6cfdbcb46)"><path fill="url(#69b65169ff)" d="M 84.722656 70.597656 L 84.722656 195.789062 L 252.5 195.789062 L 252.5 70.597656 Z M 84.722656 70.597656 " fill-rule="nonzero"/></g></g><g clip-path="url(#4fc5d42a96)"><g clip-path="url(#495b8e2694)"><path fill="url(#d70e67d498)" d="M 209.816406 209.699219 L 209.816406 223.589844 L 223.714844 223.589844 L 223.714844 209.699219 Z M 209.816406 209.699219 " fill-rule="nonzero"/></g></g><g clip-path="url(#0f83b7abdf)"><g clip-path="url(#8367f8ec5f)"><path fill="url(#f19ecdac7e)" d="M 140.320312 209.699219 L 140.320312 223.589844 L 154.21875 223.589844 L 154.21875 209.699219 Z M 140.320312 209.699219 " fill-rule="nonzero"/></g></g><g fill="#f08f1f" fill-opacity="1"><g transform="translate(12.092455, 314.609451)"><g><path d="M 25.171875 -58.09375 C 28.265625 -58.09375 31.285156 -57.640625 34.234375 -56.734375 C 37.179688 -55.835938 39.367188 -54.953125 40.796875 -54.078125 L 42.875 -52.703125 L 37.625 -42.328125 C 37.207031 -42.597656 36.628906 -42.953125 35.890625 -43.390625 C 35.148438 -43.828125 33.765625 -44.414062 31.734375 -45.15625 C 29.710938 -45.894531 27.828125 -46.265625 26.078125 -46.265625 C 23.910156 -46.265625 22.238281 -45.800781 21.0625 -44.875 C 19.882812 -43.957031 19.296875 -42.710938 19.296875 -41.140625 C 19.296875 -40.359375 19.570312 -39.632812 20.125 -38.96875 C 20.675781 -38.300781 21.617188 -37.585938 22.953125 -36.828125 C 24.296875 -36.066406 25.472656 -35.453125 26.484375 -34.984375 C 27.503906 -34.523438 29.070312 -33.835938 31.1875 -32.921875 C 34.875 -31.347656 38.019531 -29.210938 40.625 -26.515625 C 43.226562 -23.816406 44.53125 -20.765625 44.53125 -17.359375 C 44.53125 -14.085938 43.941406 -11.226562 42.765625 -8.78125 C 41.597656 -6.34375 39.988281 -4.429688 37.9375 -3.046875 C 35.882812 -1.660156 33.613281 -0.632812 31.125 0.03125 C 28.632812 0.695312 25.9375 1.03125 23.03125 1.03125 C 20.539062 1.03125 18.097656 0.773438 15.703125 0.265625 C 13.304688 -0.234375 11.300781 -0.863281 9.6875 -1.625 C 8.070312 -2.382812 6.617188 -3.132812 5.328125 -3.875 C 4.035156 -4.613281 3.085938 -5.234375 2.484375 -5.734375 L 1.59375 -6.5 L 8.09375 -17.421875 C 8.644531 -16.960938 9.40625 -16.375 10.375 -15.65625 C 11.34375 -14.945312 13.054688 -13.992188 15.515625 -12.796875 C 17.984375 -11.597656 20.164062 -11 22.0625 -11 C 27.550781 -11 30.296875 -12.863281 30.296875 -16.59375 C 30.296875 -17.375 30.097656 -18.097656 29.703125 -18.765625 C 29.304688 -19.441406 28.613281 -20.113281 27.625 -20.78125 C 26.632812 -21.445312 25.757812 -21.972656 25 -22.359375 C 24.238281 -22.753906 22.992188 -23.351562 21.265625 -24.15625 C 19.535156 -24.96875 18.253906 -25.582031 17.421875 -26 C 13.960938 -27.707031 11.285156 -29.835938 9.390625 -32.390625 C 7.503906 -34.953125 6.5625 -37.707031 6.5625 -40.65625 C 6.5625 -45.78125 8.453125 -49.96875 12.234375 -53.21875 C 16.015625 -56.46875 20.328125 -58.09375 25.171875 -58.09375 Z M 25.171875 -58.09375 "/></g></g></g><g fill="#f08f1f" fill-opacity="1"><g transform="translate(55.104842, 314.609451)"><g><path d="M 4.15625 0 L 4.15625 -35.484375 L 16.390625 -35.484375 L 16.390625 -31.75 L 16.53125 -31.75 C 19.707031 -34.925781 23.09375 -36.515625 26.6875 -36.515625 C 28.445312 -36.515625 30.191406 -36.28125 31.921875 -35.8125 C 33.648438 -35.351562 35.304688 -34.640625 36.890625 -33.671875 C 38.484375 -32.710938 39.773438 -31.34375 40.765625 -29.5625 C 41.753906 -27.789062 42.25 -25.726562 42.25 -23.375 L 42.25 0 L 30.015625 0 L 30.015625 -20.0625 C 30.015625 -21.90625 29.425781 -23.515625 28.25 -24.890625 C 27.070312 -26.273438 25.539062 -26.96875 23.65625 -26.96875 C 21.8125 -26.96875 20.140625 -26.253906 18.640625 -24.828125 C 17.140625 -23.398438 16.390625 -21.8125 16.390625 -20.0625 L 16.390625 0 Z M 4.15625 0 "/></g></g></g><g fill="#f08f1f" fill-opacity="1"><g transform="translate(97.356552, 314.609451)"><g><path d="M 6.5625 -4.390625 C 3.25 -8.003906 1.59375 -12.441406 1.59375 -17.703125 C 1.59375 -22.960938 3.25 -27.410156 6.5625 -31.046875 C 9.882812 -34.691406 14.101562 -36.515625 19.21875 -36.515625 C 23.925781 -36.515625 27.800781 -35.039062 30.84375 -32.09375 L 30.84375 -35.484375 L 43.078125 -35.484375 L 43.078125 0 L 30.984375 0 L 30.984375 -4.015625 L 30.84375 -4.015625 C 27.800781 -0.648438 23.925781 1.03125 19.21875 1.03125 C 14.101562 1.03125 9.882812 -0.773438 6.5625 -4.390625 Z M 16.96875 -23.71875 C 15.382812 -22.15625 14.59375 -20.148438 14.59375 -17.703125 C 14.59375 -15.253906 15.351562 -13.257812 16.875 -11.71875 C 18.394531 -10.175781 20.398438 -9.40625 22.890625 -9.40625 C 25.285156 -9.40625 27.253906 -10.1875 28.796875 -11.75 C 30.347656 -13.320312 31.125 -15.304688 31.125 -17.703125 C 31.125 -20.148438 30.328125 -22.15625 28.734375 -23.71875 C 27.140625 -25.289062 25.191406 -26.078125 22.890625 -26.078125 C 20.535156 -26.078125 18.5625 -25.289062 16.96875 -23.71875 Z M 16.96875 -23.71875 "/></g></g></g><g fill="#f08f1f" fill-opacity="1"><g transform="translate(141.129617, 314.609451)"><g><path d="M 40.65625 -31.078125 C 43.976562 -27.460938 45.640625 -23.023438 45.640625 -17.765625 C 45.640625 -12.515625 43.976562 -8.066406 40.65625 -4.421875 C 37.34375 -0.785156 33.128906 1.03125 28.015625 1.03125 C 23.304688 1.03125 19.429688 -0.441406 16.390625 -3.390625 L 16.390625 17.984375 L 4.15625 17.984375 L 4.15625 -35.484375 L 16.25 -35.484375 L 16.25 -31.46875 L 16.390625 -31.46875 C 19.429688 -34.832031 23.304688 -36.515625 28.015625 -36.515625 C 33.128906 -36.515625 37.34375 -34.703125 40.65625 -31.078125 Z M 30.25 -11.75 C 31.84375 -13.320312 32.640625 -15.328125 32.640625 -17.765625 C 32.640625 -20.210938 31.878906 -22.207031 30.359375 -23.75 C 28.835938 -25.300781 26.832031 -26.078125 24.34375 -26.078125 C 21.945312 -26.078125 19.972656 -25.289062 18.421875 -23.71875 C 16.878906 -22.15625 16.109375 -20.171875 16.109375 -17.765625 C 16.109375 -15.328125 16.90625 -13.320312 18.5 -11.75 C 20.09375 -10.1875 22.039062 -9.40625 24.34375 -9.40625 C 26.695312 -9.40625 28.664062 -10.1875 30.25 -11.75 Z M 30.25 -11.75 "/></g></g></g><g fill="#eb5232" fill-opacity="1"><g transform="translate(184.908853, 314.609451)"><g><path d="M 25.171875 -58.09375 C 28.265625 -58.09375 31.285156 -57.640625 34.234375 -56.734375 C 37.179688 -55.835938 39.367188 -54.953125 40.796875 -54.078125 L 42.875 -52.703125 L 37.625 -42.328125 C 37.207031 -42.597656 36.628906 -42.953125 35.890625 -43.390625 C 35.148438 -43.828125 33.765625 -44.414062 31.734375 -45.15625 C 29.710938 -45.894531 27.828125 -46.265625 26.078125 -46.265625 C 23.910156 -46.265625 22.238281 -45.800781 21.0625 -44.875 C 19.882812 -43.957031 19.296875 -42.710938 19.296875 -41.140625 C 19.296875 -40.359375 19.570312 -39.632812 20.125 -38.96875 C 20.675781 -38.300781 21.617188 -37.585938 22.953125 -36.828125 C 24.296875 -36.066406 25.472656 -35.453125 26.484375 -34.984375 C 27.503906 -34.523438 29.070312 -33.835938 31.1875 -32.921875 C 34.875 -31.347656 38.019531 -29.210938 40.625 -26.515625 C 43.226562 -23.816406 44.53125 -20.765625 44.53125 -17.359375 C 44.53125 -14.085938 43.941406 -11.226562 42.765625 -8.78125 C 41.597656 -6.34375 39.988281 -4.429688 37.9375 -3.046875 C 35.882812 -1.660156 33.613281 -0.632812 31.125 0.03125 C 28.632812 0.695312 25.9375 1.03125 23.03125 1.03125 C 20.539062 1.03125 18.097656 0.773438 15.703125 0.265625 C 13.304688 -0.234375 11.300781 -0.863281 9.6875 -1.625 C 8.070312 -2.382812 6.617188 -3.132812 5.328125 -3.875 C 4.035156 -4.613281 3.085938 -5.234375 2.484375 -5.734375 L 1.59375 -6.5 L 8.09375 -17.421875 C 8.644531 -16.960938 9.40625 -16.375 10.375 -15.65625 C 11.34375 -14.945312 13.054688 -13.992188 15.515625 -12.796875 C 17.984375 -11.597656 20.164062 -11 22.0625 -11 C 27.550781 -11 30.296875 -12.863281 30.296875 -16.59375 C 30.296875 -17.375 30.097656 -18.097656 29.703125 -18.765625 C 29.304688 -19.441406 28.613281 -20.113281 27.625 -20.78125 C 26.632812 -21.445312 25.757812 -21.972656 25 -22.359375 C 24.238281 -22.753906 22.992188 -23.351562 21.265625 -24.15625 C 19.535156 -24.96875 18.253906 -25.582031 17.421875 -26 C 13.960938 -27.707031 11.285156 -29.835938 9.390625 -32.390625 C 7.503906 -34.953125 6.5625 -37.707031 6.5625 -40.65625 C 6.5625 -45.78125 8.453125 -49.96875 12.234375 -53.21875 C 16.015625 -56.46875 20.328125 -58.09375 25.171875 -58.09375 Z M 25.171875 -58.09375 "/></g></g></g><g fill="#eb5232" fill-opacity="1"><g transform="translate(227.921241, 314.609451)"><g><path d="M 4.15625 0 L 4.15625 -59.46875 L 16.390625 -59.46875 L 16.390625 -31.75 L 16.53125 -31.75 C 19.707031 -34.925781 23.09375 -36.515625 26.6875 -36.515625 C 28.445312 -36.515625 30.191406 -36.28125 31.921875 -35.8125 C 33.648438 -35.351562 35.304688 -34.640625 36.890625 -33.671875 C 38.484375 -32.710938 39.773438 -31.34375 40.765625 -29.5625 C 41.753906 -27.789062 42.25 -25.726562 42.25 -23.375 L 42.25 0 L 30.015625 0 L 30.015625 -20.0625 C 30.015625 -21.90625 29.425781 -23.515625 28.25 -24.890625 C 27.070312 -26.273438 25.539062 -26.96875 23.65625 -26.96875 C 21.8125 -26.96875 20.140625 -26.253906 18.640625 -24.828125 C 17.140625 -23.398438 16.390625 -21.8125 16.390625 -20.0625 L 16.390625 0 Z M 4.15625 0 "/></g></g></g><g fill="#eb5232" fill-opacity="1"><g transform="translate(270.172951, 314.609451)"><g><path d="M 7.5 -4.21875 C 3.5625 -7.71875 1.59375 -12.210938 1.59375 -17.703125 C 1.59375 -23.191406 3.644531 -27.695312 7.75 -31.21875 C 11.851562 -34.75 16.921875 -36.515625 22.953125 -36.515625 C 28.898438 -36.515625 33.914062 -34.738281 38 -31.1875 C 42.082031 -27.632812 44.125 -23.140625 44.125 -17.703125 C 44.125 -12.265625 42.128906 -7.78125 38.140625 -4.25 C 34.148438 -0.726562 29.085938 1.03125 22.953125 1.03125 C 16.597656 1.03125 11.445312 -0.71875 7.5 -4.21875 Z M 16.96875 -23.71875 C 15.382812 -22.15625 14.59375 -20.148438 14.59375 -17.703125 C 14.59375 -15.253906 15.351562 -13.257812 16.875 -11.71875 C 18.394531 -10.175781 20.398438 -9.40625 22.890625 -9.40625 C 25.285156 -9.40625 27.253906 -10.1875 28.796875 -11.75 C 30.347656 -13.320312 31.125 -15.304688 31.125 -17.703125 C 31.125 -20.148438 30.328125 -22.15625 28.734375 -23.71875 C 27.140625 -25.289062 25.191406 -26.078125 22.890625 -26.078125 C 20.535156 -26.078125 18.5625 -25.289062 16.96875 -23.71875 Z M 16.96875 -23.71875 "/></g></g></g><g fill="#eb5232" fill-opacity="1"><g transform="translate(312.424661, 314.609451)"><g><path d="M 40.65625 -31.078125 C 43.976562 -27.460938 45.640625 -23.023438 45.640625 -17.765625 C 45.640625 -12.515625 43.976562 -8.066406 40.65625 -4.421875 C 37.34375 -0.785156 33.128906 1.03125 28.015625 1.03125 C 23.304688 1.03125 19.429688 -0.441406 16.390625 -3.390625 L 16.390625 17.984375 L 4.15625 17.984375 L 4.15625 -35.484375 L 16.25 -35.484375 L 16.25 -31.46875 L 16.390625 -31.46875 C 19.429688 -34.832031 23.304688 -36.515625 28.015625 -36.515625 C 33.128906 -36.515625 37.34375 -34.703125 40.65625 -31.078125 Z M 30.25 -11.75 C 31.84375 -13.320312 32.640625 -15.328125 32.640625 -17.765625 C 32.640625 -20.210938 31.878906 -22.207031 30.359375 -23.75 C 28.835938 -25.300781 26.832031 -26.078125 24.34375 -26.078125 C 21.945312 -26.078125 19.972656 -25.289062 18.421875 -23.71875 C 16.878906 -22.15625 16.109375 -20.171875 16.109375 -17.765625 C 16.109375 -15.328125 16.90625 -13.320312 18.5 -11.75 C 20.09375 -10.1875 22.039062 -9.40625 24.34375 -9.40625 C 26.695312 -9.40625 28.664062 -10.1875 30.25 -11.75 Z M 30.25 -11.75 "/></g></g></g></svg>